<svg xmlns="http://www.w3.org/2000/svg" viewBox="0 0 500 500"><g id="freepik--background-simple--inject-237"><g id="freepik--simple-background--inject-237"><path d="M240.74,95.62c-26.13.35-52.5,1.92-77.62,9.14s-49.09,20.55-65.31,41c-12,15.17-19.42,36-12.28,54,6.44,16.22,22.64,26,37.19,35.59s29.63,22.36,31.3,39.73c1.27,13.13-5.75,25.86-15,35.22s-20.79,16.16-31.41,24-20.77,17.23-25.5,29.54-2.62,28.06,7.9,36c6.3,4.76,14.47,6.11,22.32,7,56.11,6.51,114.44-2.46,164.43-28.75S367.8,307.8,387.31,254.79c9.35-25.41,13.75-53.1,9.16-79.78-3.88-22.52-14.56-44.31-31.52-59.85-18.27-16.75-51.07-16.69-74.67-18.35C273.8,95.65,257.26,95.4,240.74,95.62Z" style="fill:#263238"></path><path d="M240.74,95.62c-26.13.35-52.5,1.92-77.62,9.14s-49.09,20.55-65.31,41c-12,15.17-19.42,36-12.28,54,6.44,16.22,22.64,26,37.19,35.59s29.63,22.36,31.3,39.73c1.27,13.13-5.75,25.86-15,35.22s-20.79,16.16-31.41,24-20.77,17.23-25.5,29.54-2.62,28.06,7.9,36c6.3,4.76,14.47,6.11,22.32,7,56.11,6.51,114.44-2.46,164.43-28.75S367.8,307.8,387.31,254.79c9.35-25.41,13.75-53.1,9.16-79.78-3.88-22.52-14.56-44.31-31.52-59.85-18.27-16.75-51.07-16.69-74.67-18.35C273.8,95.65,257.26,95.4,240.74,95.62Z" style="fill:#fff;opacity:0.9"></path></g></g><g id="freepik--Shadows--inject-237"><g id="freepik--shadows--inject-237"><ellipse id="freepik--path--inject-112--inject-237" cx="250" cy="463.9" rx="193.89" ry="11.32" style="fill:#fafafa"></ellipse></g></g><g id="freepik--smartphone-screen--inject-237"><g id="freepik--smartphone-screen--inject-237"><g id="freepik--group--inject-237"><path d="M381.24,319.64H323.76a8.9,8.9,0,0,1-9-9.87l10.94-125.09a11,11,0,0,1,10.74-9.87h57.48a8.9,8.9,0,0,1,9,9.87L392,309.77A11,11,0,0,1,381.24,319.64Z" style="fill:#263238"></path><path d="M381.24,319.64H323.76a8.9,8.9,0,0,1-9-9.87l10.94-125.09a11,11,0,0,1,10.74-9.87h57.48a8.9,8.9,0,0,1,9,9.87L392,309.77A11,11,0,0,1,381.24,319.64Z" style="opacity:0.1"></path><path d="M357.84,310.42a5.22,5.22,0,0,1-5.1,4.69,4.23,4.23,0,0,1-4.29-4.69,5.23,5.23,0,0,1,5.11-4.7A4.23,4.23,0,0,1,357.84,310.42Z" style="fill:none;stroke:#fff;stroke-miterlimit:10;stroke-width:0.5px;opacity:0.8"></path><path d="M373.54,186H354.93a1.58,1.58,0,0,1-1.6-1.75l0-.43a1.94,1.94,0,0,1,1.9-1.75h18.61a1.58,1.58,0,0,1,1.6,1.75l0,.43A1.94,1.94,0,0,1,373.54,186Z" style="fill:none;stroke:#fff;stroke-miterlimit:10;stroke-width:0.5px;opacity:0.8"></path><polygon points="387.02 298.8 320.81 298.8 330.15 192.09 396.35 192.09 387.02 298.8" style="fill:#fff;opacity:0.4"></polygon><polygon points="369.83 175.26 337.77 319.64 357.04 319.64 388.77 175.26 369.83 175.26" style="fill:#fff;opacity:0.1;isolation:isolate"></polygon><polygon points="354.84 175.26 322.78 319.64 332.49 319.64 364.23 175.26 354.84 175.26" style="fill:#fff;opacity:0.1;isolation:isolate"></polygon><polygon points="341.86 293.03 325.49 293.03 326.48 281.72 342.84 281.72 341.86 293.03" style="fill:#263238"></polygon><polygon points="362.62 293.03 346.25 293.03 347.24 281.72 363.61 281.72 362.62 293.03" style="fill:#263238"></polygon><polygon points="383.39 293.03 367.02 293.03 368.01 281.72 384.38 281.72 383.39 293.03" style="fill:#263238"></polygon><polygon points="385.92 264.17 328.01 264.17 327.92 265.17 385.83 265.17 385.92 264.17" style="fill:#263238"></polygon><polygon points="385.92 264.17 328.01 264.17 327.92 265.17 385.83 265.17 385.92 264.17" style="opacity:0.2"></polygon><polygon points="386.25 260.35 380.91 260.35 381.38 255 386.72 255 386.25 260.35" style="fill:#263238"></polygon><polygon points="359.99 260.35 354.65 260.35 355.12 255 360.46 255 359.99 260.35" style="fill:#263238"></polygon><polygon points="333.73 260.35 328.39 260.35 328.86 255 334.2 255 333.73 260.35" style="fill:#263238"></polygon><polygon points="385 274.63 369.81 274.63 370.13 270.96 385.32 270.96 385 274.63" style="fill:#263238"></polygon><polygon points="367 249.19 329.39 249.19 329.72 245.47 367.33 245.47 367 249.19" style="fill:#263238"></polygon><polygon points="367 249.19 329.39 249.19 329.72 245.47 367.33 245.47 367 249.19" style="fill:#fff;opacity:0.2"></polygon><polygon points="351.06 199.82 333.71 199.82 334.06 195.86 351.4 195.86 351.06 199.82" style="fill:#263238"></polygon><polygon points="351.06 199.82 333.71 199.82 334.06 195.86 351.4 195.86 351.06 199.82" style="fill:#fff;opacity:0.2"></polygon><path d="M331.54,277.23h0a4.15,4.15,0,0,1-4.2-4.6h0a5.12,5.12,0,0,1,5-4.6h0a4.15,4.15,0,0,1,4.2,4.6h0A5.12,5.12,0,0,1,331.54,277.23Z" style="fill:#263238"></path><polygon points="387.73 242.47 329.95 242.47 333.44 202.56 391.23 202.56 387.73 242.47" style="fill:#263238"></polygon><path d="M325.4,188h21.06a10,10,0,0,0,9.81-9l.36-4.14H336.72A11.31,11.31,0,0,0,325.67,185Z" style="opacity:0.30000000000000004"></path></g><rect x="401.67" y="208.44" width="4.83" height="1" transform="translate(166.52 596.89) rotate(-85.86)" style="fill:#263238"></rect><rect x="398.07" y="194.78" width="14.01" height="1" transform="translate(181.06 585.2) rotate(-85.86)" style="fill:#263238"></rect></g></g><g id="freepik--monitor-screen--inject-237"><g id="freepik--monitor-screen--inject-237"><g id="freepik--group--inject-237"><polygon points="344.44 174.9 174.82 174.9 184.22 67.37 353.85 67.37 344.44 174.9" style="fill:#263238"></polygon><path d="M342.1,183.31H175a7.73,7.73,0,0,1-7.83-8.58l9.35-106.86a9.55,9.55,0,0,1,9.33-8.59H353a7.75,7.75,0,0,1,7.83,8.59l-9.35,106.86A9.55,9.55,0,0,1,342.1,183.31Z" style="fill:#263238"></path><polygon points="344.44 174.9 174.82 174.9 184.22 67.37 353.85 67.37 344.44 174.9" style="fill:#263238"></polygon><polygon points="344.44 174.9 174.82 174.9 184.22 67.37 353.85 67.37 344.44 174.9" style="fill:#fff;opacity:0.4"></polygon><polygon points="333.44 98.57 302.3 98.57 303.83 81.05 334.98 81.05 333.44 98.57" style="fill:#263238"></polygon><polygon points="330.42 133.13 299.27 133.13 300.81 115.61 331.95 115.61 330.42 133.13" style="fill:#263238"></polygon><polygon points="327.39 167.68 296.25 167.68 297.78 150.16 328.93 150.16 327.39 167.68" style="fill:#263238"></polygon><polygon points="193.65 154.26 193.56 155.26 283.45 155.26 283.54 154.26 193.65 154.26" style="fill:#263238"></polygon><polygon points="283.54 154.26 193.65 154.26 193.56 155.26 283.45 155.26 283.54 154.26" style="opacity:0.2"></polygon><polygon points="205.3 59.34 172.17 183.26 183.31 183.26 216.08 59.34 205.3 59.34" style="fill:#fff;opacity:0.1;isolation:isolate"></polygon><polygon points="222.5 59.34 189.37 183.26 211.48 183.26 244.24 59.34 222.5 59.34" style="fill:#fff;opacity:0.1;isolation:isolate"></polygon><polygon points="284.54 142.83 194.76 142.83 200.19 80.82 289.96 80.82 284.54 142.83" style="fill:#263238"></polygon><path d="M197.23,167.28h0a4.15,4.15,0,0,1-4.2-4.6h0a5.12,5.12,0,0,1,5-4.6h0a4.15,4.15,0,0,1,4.2,4.6h0A5.12,5.12,0,0,1,197.23,167.28Z" style="fill:#263238"></path><polygon points="238.98 150.45 194.1 150.45 194.44 146.49 239.33 146.49 238.98 150.45" style="fill:#263238"></polygon><polygon points="238.98 150.45 194.1 150.45 194.44 146.49 239.33 146.49 238.98 150.45" style="fill:#fff;opacity:0.2"></polygon><polygon points="282.57 164.66 265.23 164.66 265.57 160.69 282.92 160.69 282.57 164.66" style="fill:#263238"></polygon><polygon points="283.87 150.45 279.91 150.45 280.25 146.49 284.22 146.49 283.87 150.45" style="fill:#263238"></polygon><polygon points="277.15 150.45 273.19 150.45 273.54 146.49 277.5 146.49 277.15 150.45" style="fill:#263238"></polygon><polygon points="270.44 150.45 266.47 150.45 266.82 146.49 270.78 146.49 270.44 150.45" style="fill:#263238"></polygon><polygon points="290.3 77.01 222.97 77.01 223.26 73.59 290.6 73.59 290.3 77.01" style="fill:#fff;opacity:0.5"></polygon><polygon points="217.65 77.28 200.31 77.28 200.65 73.32 218 73.32 217.65 77.28" style="fill:#263238"></polygon><polygon points="217.65 77.28 200.31 77.28 200.65 73.32 218 73.32 217.65 77.28" style="fill:#fff;opacity:0.2"></polygon></g><rect x="336.79" y="54.09" width="1" height="4.83" transform="translate(277.97 393.31) rotate(-89.52)" style="fill:#263238"></rect><rect x="323.09" y="49.39" width="1" height="14.01" transform="matrix(0.01, -1, 1, 0.01, 264.5, 379.5)" style="fill:#263238"></rect></g></g><g id="freepik--drawing-table--inject-237"><g id="freepik--drawing-table--inject-237"><polygon points="281.06 204.07 286.47 204.07 276.51 314.25 271.38 314.25 281.06 204.07" style="fill:#263238"></polygon><polygon points="281.06 204.07 286.47 204.07 276.51 314.25 271.38 314.25 281.06 204.07" style="fill:#fff;opacity:0.2"></polygon><rect x="283.04" y="256.87" width="1" height="53.78" transform="translate(-34.69 39.54) rotate(-7.52)" style="fill:#263238"></rect><polygon points="273.94 308.32 107.25 308.32 116.37 204.07 283.06 204.07 273.94 308.32" style="fill:#263238"></polygon><polygon points="273.94 308.32 107.25 308.32 116.37 204.07 283.06 204.07 273.94 308.32" style="fill:#fff;opacity:0.7000000000000001"></polygon><polygon points="143.77 320.82 150.67 320.82 161.95 467.22 156.96 467.22 143.77 320.82" style="fill:#263238"></polygon><polygon points="309.56 319.82 316.46 319.82 327.74 467.22 322.75 467.22 309.56 319.82" style="fill:#263238"></polygon><rect x="108.63" y="319.82" width="205.78" height="23.21" style="fill:#263238"></rect><polygon points="278.27 320 277.46 343.01 314.41 343.03 314.41 319.82 278.27 320" style="opacity:0.30000000000000004"></polygon><rect x="108.66" y="319.99" width="166.48" height="23.21" style="opacity:0.2"></rect><polygon points="113.18 319.82 106.28 319.82 106.07 467.22 111.05 467.22 113.18 319.82" style="fill:#263238"></polygon><polygon points="278.97 319.82 272.07 319.82 271.87 467.22 276.85 467.22 278.97 319.82" style="fill:#263238"></polygon><polygon points="106.28 319.82 106.07 467.22 111.05 467.22 113.18 319.82 106.28 319.82" style="fill:#fff;opacity:0.2"></polygon><polygon points="278.97 319.82 272.07 319.82 271.87 467.22 276.85 467.22 278.97 319.82" style="fill:#fff;opacity:0.1"></polygon><path d="M100.54,314.25h0c0-3.13,1.16-5.66,2.6-5.67H319.6c1.44,0,2.6,2.54,2.6,5.67h0c0,3.12-1.16,5.65-2.6,5.66H103.14C101.7,319.9,100.54,317.37,100.54,314.25Z" style="fill:#263238"></path><path d="M100.54,314.25h0c0-3.13,1.16-5.66,2.6-5.67H319.6c1.44,0,2.6,2.54,2.6,5.67h0c0,3.12-1.16,5.65-2.6,5.66H103.14C101.7,319.9,100.54,317.37,100.54,314.25Z" style="fill:#fff;opacity:0.1"></path><path d="M266.33,314.25h0c0-3.13,1.17-5.66,2.6-5.67H319.6c1.44,0,2.6,2.54,2.6,5.67h0c0,3.12-1.16,5.65-2.6,5.66H268.93C267.5,319.9,266.33,317.37,266.33,314.25Z" style="fill:#263238"></path><polygon points="263.32 294.89 212.87 294.89 219.98 213.56 270.44 213.56 263.32 294.89" style="fill:#fff"></polygon><path d="M263.78,295.39H212.33l7.2-82.33H271Zm-50.37-1h49.46l7-80.33H220.44Z" style="fill:#fff"></path><path d="M229.37,291.26H217.08l.75-8.65h12.29Zm-11.75-.5h11.29l.67-7.65H218.29Z" style="fill:#e0e0e0"></path><path d="M244.33,291.26H232l.76-8.65h12.29Zm-11.75-.5h11.29l.67-7.65H233.25Z" style="fill:#e0e0e0"></path><path d="M259.28,291.26H247l.76-8.65H260Zm-11.74-.5h11.28l.67-7.65H248.21Z" style="fill:#e0e0e0"></path><rect x="219.14" y="270.33" width="41.71" height="0.5" style="fill:#e0e0e0"></rect><path d="M247.57,258.69H220l.27-3.18h27.59Zm-27-.5h26.59l.19-2.18H220.71Z" style="fill:#e0e0e0"></path><path d="M260.36,279H248.91l.28-3.15h11.44Zm-10.9-.5H259.9l.18-2.15H249.65Z" style="fill:#e0e0e0"></path><path d="M261.43,266.72h-4.35l.38-4.35h4.35Zm-3.8-.5H261l.29-3.35h-3.34Z" style="fill:#e0e0e0"></path><path d="M242.52,266.72h-4.35l.38-4.35h4.35Zm-3.81-.5h3.35l.29-3.35H239Z" style="fill:#e0e0e0"></path><path d="M223.61,266.72h-4.35l.38-4.35H224Zm-3.81-.5h3.35l.29-3.35h-3.35Z" style="fill:#e0e0e0"></path><path d="M236.26,221.13h-13l.3-3.36h13Zm-12.45-.5h12l.2-2.36H224Z" style="fill:#e0e0e0"></path><path d="M222.26,279.88h-1.1a2.75,2.75,0,0,1-2.77-3l.1-1.09a3.33,3.33,0,0,1,3.25-3h1.09a2.75,2.75,0,0,1,2.78,3l-.1,1.09A3.33,3.33,0,0,1,222.26,279.88Zm-.52-6.63a2.84,2.84,0,0,0-2.76,2.54l-.09,1.09a2.25,2.25,0,0,0,2.27,2.5h1.1a2.84,2.84,0,0,0,2.76-2.54l.09-1.09a2.29,2.29,0,0,0-.58-1.77,2.27,2.27,0,0,0-1.7-.73Z" style="fill:#e0e0e0"></path><path d="M262.59,252.84H220.47l0-.27,2.53-29h42.12l0,.27Zm-41.58-.5h41.12l2.47-28.24H223.48Z" style="fill:#e0e0e0"></path><rect x="242.56" y="213.96" width="0.5" height="48.53" transform="translate(-92.95 292.76) rotate(-53.68)" style="fill:#e0e0e0"></rect><rect x="218.46" y="244.67" width="28.14" height="0.5" transform="translate(-95.97 166.56) rotate(-33.07)" style="fill:#e0e0e0"></rect><polygon points="228.99 291.21 217.91 283.06 218.21 282.66 229.29 290.81 228.99 291.21" style="fill:#e0e0e0"></polygon><rect x="216.14" y="286.69" width="14.92" height="0.5" transform="translate(-120.34 168.48) rotate(-33.07)" style="fill:#e0e0e0"></rect><polygon points="243.95 291.21 232.87 283.06 233.17 282.66 244.25 290.81 243.95 291.21" style="fill:#e0e0e0"></polygon><rect x="231.1" y="286.69" width="14.92" height="0.5" transform="translate(-117.94 176.7) rotate(-33.08)" style="fill:#e0e0e0"></rect><polygon points="258.9 291.21 247.83 283.06 248.13 282.66 259.2 290.81 258.9 291.21" style="fill:#e0e0e0"></polygon><rect x="246.06" y="286.69" width="14.92" height="0.5" transform="translate(-115.52 184.87) rotate(-33.08)" style="fill:#e0e0e0"></rect><polygon points="206.54 277.31 113.29 277.31 118.85 213.76 212.1 213.76 206.54 277.31" style="fill:#fff"></polygon><path d="M207,277.81H112.75l5.65-64.55h94.24Zm-93.16-1h92.24l5.47-62.55H119.31Z" style="fill:#fff"></path><rect x="124.14" y="266" width="50.62" height="0.5" style="fill:#e0e0e0"></rect><path d="M175.84,256.77h-51l0-.27,3.07-35.14h51.06l0,.27Zm-50.51-.5h50.05l3-34.41h-50Z" style="fill:#e0e0e0"></path><path d="M126.87,273.54h-1.38a2,2,0,0,1-1.48-.63,2,2,0,0,1-.5-1.54l.12-1.38a2.38,2.38,0,0,1,2.32-2.13h1.37a2,2,0,0,1,1.48.64,2,2,0,0,1,.51,1.53l-.12,1.38A2.39,2.39,0,0,1,126.87,273.54Zm-.92-5.18a1.86,1.86,0,0,0-1.82,1.67l-.12,1.38a1.45,1.45,0,0,0,1.48,1.63h1.38a1.87,1.87,0,0,0,1.82-1.67l.12-1.38a1.47,1.47,0,0,0-1.49-1.63Z" style="fill:#e0e0e0"></path><path d="M150,263.07H124.23l.24-2.74h25.78Zm-25.23-.5h24.77l.16-1.74H124.93Z" style="fill:#e0e0e0"></path><path d="M174.47,272.07H164.2l.24-2.74h10.27Zm-9.72-.5H174l.16-1.74H164.9Z" style="fill:#e0e0e0"></path><path d="M175.29,263.07h-2.73l.23-2.74h2.74Zm-2.19-.5h1.73l.15-1.74h-1.73Z" style="fill:#e0e0e0"></path><path d="M171.51,263.07h-2.74l.24-2.74h2.74Zm-2.19-.5h1.73l.15-1.74h-1.73Z" style="fill:#e0e0e0"></path><path d="M167.72,263.07H165l.24-2.74H168Zm-2.18-.5h1.73l.15-1.74h-1.73Z" style="fill:#e0e0e0"></path><path d="M179.17,218.71H140.75l.21-2.43h38.42Zm-37.87-.5h37.41l.13-1.43H141.42Z" style="fill:#e0e0e0"></path><path d="M138.26,218.86H128l.24-2.73H138.5Zm-9.72-.5h9.26l.16-1.73h-9.27Z" style="fill:#e0e0e0"></path><path d="M203.29,232.85h-18l.91-10.37h18Zm-17.49-.5h17l.83-9.37h-17Z" style="fill:#e0e0e0"></path><path d="M201.59,252.31h-18l.91-10.37h18Zm-17.5-.5h17l.82-9.37h-17Z" style="fill:#e0e0e0"></path><path d="M199.89,271.77h-18l.9-10.37h18Zm-17.5-.5h17l.82-9.37h-17Z" style="fill:#e0e0e0"></path><rect x="184.29" y="227.42" width="20.88" height="0.5" transform="translate(-84.52 119.17) rotate(-28.23)" style="fill:#e0e0e0"></rect><polygon points="202.94 232.81 186.26 222.95 186.51 222.52 203.19 232.38 202.94 232.81" style="fill:#e0e0e0"></polygon><rect x="182.58" y="246.88" width="20.88" height="0.5" transform="matrix(0.88, -0.47, 0.47, 0.88, -93.77, 120.33)" style="fill:#e0e0e0"></rect><rect x="192.77" y="237.44" width="0.5" height="19.38" transform="matrix(0.51, -0.86, 0.86, 0.51, -117.95, 287.42)" style="fill:#e0e0e0"></rect><path d="M181.83,272l.94-10.72,8.56,5.06,9.07-4.87.24.45-8.81,4.72,8,4.71-.26.43-8.21-4.87Zm1.37-9.89-.79,9,8.4-4.5Z" style="fill:#e0e0e0"></path><rect x="119.87" y="238.81" width="63.98" height="0.5" transform="translate(-105.84 121.59) rotate(-33.07)" style="fill:#e0e0e0"></rect><rect x="151.61" y="209.59" width="0.5" height="58.95" transform="translate(-130.7 219.82) rotate(-53.68)" style="fill:#e0e0e0"></rect></g></g></svg>
