<svg xmlns="http://www.w3.org/2000/svg" viewBox="0 0 750 500"><g id="freepik--background-simple--inject-309"><path d="M692.6,54.8c-12.35,1.85-27.43,7-34.13,8.25q-52.9,9.83-106,17.37C494.91,88.56,437.09,95,379.34,96.23,293.39,98.13,209.07,78.38,124.18,68c-20.19-2.46-80.87-17.47-91,15.87C20,127.12,20.54,179.06,19.07,224.26c-1.56,48.21-3.07,96.37-3.52,144.52-.16,16.49,1.09,33.43,7.19,47.85,7.64,18.05,21.83,25.8,37.68,28.33,28.68,4.56,57.85,3.12,86.81,2,39.16-1.54,78.31-5.18,117.41-9.05,67.69-6.7,136.52-18,204.28-15.55,47.57,1.74,94.36,11.15,141,20.58,18.9,3.82,37.45,9.73,56.6,11.94,15.52,1.78,39.22,3.51,52-11.06C729.23,431.57,729.66,403,731,387c2.93-34.44,3.3-69.14,3.1-103.61-.38-64.59-1.14-131.78-10.83-195.09C720,66.8,712,51.9,692.6,54.8Z" style="fill:#B0BEC5"></path><path d="M692.6,54.8c-12.35,1.85-27.43,7-34.13,8.25q-52.9,9.83-106,17.37C494.91,88.56,437.09,95,379.34,96.23,293.39,98.13,209.07,78.38,124.18,68c-20.19-2.46-80.87-17.47-91,15.87C20,127.12,20.54,179.06,19.07,224.26c-1.56,48.21-3.07,96.37-3.52,144.52-.16,16.49,1.09,33.43,7.19,47.85,7.64,18.05,21.83,25.8,37.68,28.33,28.68,4.56,57.85,3.12,86.81,2,39.16-1.54,78.31-5.18,117.41-9.05,67.69-6.7,136.52-18,204.28-15.55,47.57,1.74,94.36,11.15,141,20.58,18.9,3.82,37.45,9.73,56.6,11.94,15.52,1.78,39.22,3.51,52-11.06C729.23,431.57,729.66,403,731,387c2.93-34.44,3.3-69.14,3.1-103.61-.38-64.59-1.14-131.78-10.83-195.09C720,66.8,712,51.9,692.6,54.8Z" style="fill:#fff;opacity:0.7000000000000001"></path></g><g id="freepik--speech-bubble--inject-309"><path d="M172.75,66.13H128.61a7.53,7.53,0,0,0-7.53,7.53v61.26a7.53,7.53,0,0,0,7.53,7.53h30.93l-10.09,36.2,20.75-36.2h2.55a7.53,7.53,0,0,0,7.52-7.53V73.66A7.53,7.53,0,0,0,172.75,66.13Z" style="fill:#fff;stroke:#263238;stroke-miterlimit:10"></path><path d="M158.59,120.39a4.78,4.78,0,0,0,1.07-3.19l.24-1.46c.71-4.11,2.59-10.46,5.17-13.75a18.27,18.27,0,1,0-28.41.45c2.81,3.37,4.44,10.12,5,14.46l0,.3a4.76,4.76,0,0,0,1.12,3.25" style="fill:#B0BEC5;stroke:#263238;stroke-linecap:round;stroke-linejoin:round"></path><rect x="141.7" y="120.39" width="18.61" height="4.65" rx="1.4" style="fill:#263238;stroke:#263238;stroke-linecap:round;stroke-linejoin:round"></rect><rect x="141.7" y="126.36" width="18.61" height="4.65" rx="1.4" style="fill:#263238;stroke:#263238;stroke-linecap:round;stroke-linejoin:round"></rect><path d="M143.37,132.43c.91,2.75,4,4.77,7.63,4.77s6.72-2,7.63-4.77Z" style="fill:none;stroke:#263238;stroke-linecap:round;stroke-linejoin:round"></path></g><g id="freepik--Charts--inject-309"><rect x="564.9" y="45.1" width="82.95" height="58.76" rx="2.77" style="fill:#fff;stroke:#263238;stroke-linecap:round;stroke-linejoin:round"></rect><path d="M591.77,98.17a23.46,23.46,0,0,1-4.54-46.48l1.12,5.69a17.67,17.67,0,1,0,9.09,34.07l1.86,5.48A23.4,23.4,0,0,1,591.77,98.17Z" style="fill:#263238"></path><path d="M608.39,68.7a17.71,17.71,0,0,0-20-11.32l-1.12-5.69a23.76,23.76,0,0,1,4.54-.43,23.51,23.51,0,0,1,22.06,15.47Z" style="fill:#B0BEC5"></path><path d="M599.3,96.93l-1.86-5.48A17.72,17.72,0,0,0,608.39,68.7l5.44-2a23.46,23.46,0,0,1-14.53,30.2Z" style="fill:#a8a8a8"></path><rect x="623.09" y="56.63" width="6.51" height="6.51" style="fill:#263238"></rect><rect x="623.09" y="72.57" width="6.51" height="6.51" style="fill:#B0BEC5"></rect><rect x="623.09" y="88.5" width="6.51" height="6.51" style="fill:#a8a8a8"></rect><line x1="633.03" y1="60.06" x2="644" y2="60.06" style="fill:none;stroke:#263238;stroke-linecap:round;stroke-linejoin:round"></line><line x1="633.03" y1="75.48" x2="644" y2="75.48" style="fill:none;stroke:#263238;stroke-linecap:round;stroke-linejoin:round"></line><line x1="585.74" y1="75.14" x2="596.71" y2="75.14" style="fill:none;stroke:#263238;stroke-linecap:round;stroke-linejoin:round"></line><line x1="633.03" y1="91.59" x2="644" y2="91.59" style="fill:none;stroke:#263238;stroke-linecap:round;stroke-linejoin:round"></line><rect x="564.9" y="111.42" width="82.88" height="64.24" rx="4.11" style="fill:#fff;stroke:#263238;stroke-linecap:round;stroke-linejoin:round"></rect><rect x="574.41" y="134.18" width="10.27" height="33.8" style="fill:#B0BEC5"></rect><rect x="587.63" y="142.62" width="10.27" height="25.35" style="fill:#828282"></rect><rect x="600.84" y="130.08" width="10.27" height="37.89" style="fill:#B0BEC5"></rect><rect x="614.06" y="128.03" width="10.27" height="39.94" style="fill:#828282"></rect><rect x="627.28" y="134.18" width="10.27" height="33.8" style="fill:#B0BEC5"></rect><line x1="575.64" y1="119.08" x2="630.15" y2="119.08" style="fill:none;stroke:#263238;stroke-linecap:round;stroke-linejoin:round"></line><line x1="575.64" y1="124.44" x2="598.35" y2="124.44" style="fill:none;stroke:#263238;stroke-linecap:round;stroke-linejoin:round"></line></g><g id="freepik--Gears--inject-309"><path d="M375.3,219.19l9.25,1.28,2.23-9.76L378.19,208s0,0,0-.08a23.56,23.56,0,0,0-1.86-9.18l6.47-6.15-6.24-7.82-7.2,4.78a23.33,23.33,0,0,0-8.73-4.41l-.75-8.59h-10l-.74,8.47a23.41,23.41,0,0,0-8.86,4.24l-7.23-4.8-6.23,7.82,6.32,6a23.44,23.44,0,0,0-2,9.3l-8.59,2.77,2.23,9.75,9.06-1.25a23.44,23.44,0,0,0,5.73,7.09l-3.33,8.81,9,4.34L350,231a23.87,23.87,0,0,0,8.91.06l4.88,8.21,9-4.34-3.31-8.76A23.81,23.81,0,0,0,375.3,219.19Zm-33.41-11.32a12.76,12.76,0,1,1,12.75,12.75A12.75,12.75,0,0,1,341.89,207.87Z" style="fill:#263238"></path><path d="M413.93,183.32l7.18,1,1.73-7.56-6.66-2.15v-.06a18.11,18.11,0,0,0-1.44-7.12l5-4.78-4.84-6.07-5.59,3.71a18.25,18.25,0,0,0-6.78-3.42l-.58-6.67H394.2l-.57,6.57a18.28,18.28,0,0,0-6.88,3.29l-5.61-3.72-4.84,6.07,4.91,4.67a18.36,18.36,0,0,0-1.59,7.23L373,176.45l1.72,7.56,7-1a18.29,18.29,0,0,0,4.44,5.51l-2.58,6.83,7,3.37,3.73-6.29a18.44,18.44,0,0,0,3.59.36,18.22,18.22,0,0,0,3.32-.31l3.79,6.38,7-3.37-2.57-6.81A18.27,18.27,0,0,0,413.93,183.32ZM388,174.54a9.9,9.9,0,1,1,9.9,9.9A9.9,9.9,0,0,1,388,174.54Z" style="fill:#263238"></path></g><g id="freepik--Text--inject-309"><path d="M328.29,293l7.8-36.73H341L348.87,293H344l-1.68-9.25h-7.48L333.09,293Zm7.25-12.93h6.12l-3.08-16.55Z" style="fill:#263238"></path><path d="M361.16,293.45a9.32,9.32,0,0,1-5.51-1.47,8.3,8.3,0,0,1-3-4.29,21.64,21.64,0,0,1-.93-6.76V268.65a24.55,24.55,0,0,1,.84-6.88,7.81,7.81,0,0,1,3-4.33,10.49,10.49,0,0,1,6-1.49,11.58,11.58,0,0,1,5.56,1.15,6.77,6.77,0,0,1,3.06,3.54,16.43,16.43,0,0,1,.95,6V268h-4.81v-1.13A19.22,19.22,0,0,0,366,263a3.66,3.66,0,0,0-1.29-2.26,5,5,0,0,0-3.06-.75,4.48,4.48,0,0,0-3.29,1,4.93,4.93,0,0,0-1.27,2.84,30.52,30.52,0,0,0-.25,4.05v13.61a20.91,20.91,0,0,0,.39,4.4,4.47,4.47,0,0,0,1.47,2.63,4.92,4.92,0,0,0,3.09.86,4.54,4.54,0,0,0,3.08-.95,5.11,5.11,0,0,0,1.5-2.82,22.07,22.07,0,0,0,.41-4.62v-2.54h-4.68v-3.63h9.3V293h-3.22l-.5-4.22a7.61,7.61,0,0,1-2.27,3.35A6.31,6.31,0,0,1,361.16,293.45Z" style="fill:#263238"></path><path d="M376.94,293V256.27h5V293Z" style="fill:#263238"></path><path d="M387.92,293V256.27H393v33.05h9.39V293Z" style="fill:#263238"></path><path d="M405.92,293V256.27h14.24v3.8H411v12.16h7.39v3.63H411v13.46h9.21V293Z" style="fill:#263238"></path></g><g id="freepik--Arrows--inject-309"><path d="M551.77,236.88A175.88,175.88,0,0,1,379.2,413.68q-1.63,0-3.3,0H179.32l16-24.08-16-26.92H375.9c.79,0,1.57,0,2.35,0A124.86,124.86,0,0,0,378.09,113L380.65,124l-50.84-27.9L363,48.52l3.21,13.73c3.23-.17,6.46-.27,9.68-.27a175.73,175.73,0,0,1,175.87,174.9Z" style="fill:#B0BEC5;stroke:#263238;stroke-linecap:round;stroke-linejoin:round"></path><path d="M624.35,387.1,581.2,348.36V361.6H515.62c-2.26,2.55-4.59,5.07-7,7.52A197.64,197.64,0,0,1,446,412.37l-.21.23H581.2v13.23Z" style="fill:#263238;stroke:#263238;stroke-linecap:round;stroke-linejoin:round"></path><path d="M250.91,237.71c0-58.28,40.24-107.32,94.4-120.85L317.07,99.73l25.62-33.48c-80.64,15.38-141.78,86.41-141.78,171.46a173.78,173.78,0,0,0,40.37,111.52H320A124.68,124.68,0,0,1,250.91,237.71Z" style="fill:#263238;stroke:#263238;stroke-linecap:round;stroke-linejoin:round"></path></g><g id="freepik--Floor--inject-309"><line x1="296.58" y1="446.69" x2="743.51" y2="446.69" style="fill:none;stroke:#263238;stroke-miterlimit:10"></line><line x1="17.2" y1="446.69" x2="285.4" y2="446.69" style="fill:none;stroke:#263238;stroke-miterlimit:10"></line></g></svg>
